<svg width="201" height="200" viewBox="0 0 201 200" fill="none" xmlns="http://www.w3.org/2000/svg">
<path d="M110.435 82.34L187.925 127.07C188.028 127.106 188.118 127.174 188.181 127.264C188.245 127.353 188.279 127.46 188.279 127.57C188.279 127.68 188.245 127.787 188.181 127.876C188.118 127.966 188.028 128.034 187.925 128.07L96.3746 180.93C96.1033 181.061 95.8059 181.129 95.5046 181.129C95.2033 181.129 94.9059 181.061 94.6346 180.93L17.1546 136.19C17.051 136.154 16.9613 136.086 16.8979 135.996C16.8344 135.907 16.8004 135.8 16.8004 135.69C16.8004 135.58 16.8344 135.473 16.8979 135.384C16.9613 135.294 17.051 135.226 17.1546 135.19L108.685 82.34C108.955 82.1989 109.255 82.1252 109.56 82.1252C109.864 82.1252 110.164 82.1989 110.435 82.34V82.34Z" fill="black"/>
<path d="M187.505 115.27C187.541 115.291 187.572 115.322 187.593 115.359C187.614 115.396 187.625 115.438 187.625 115.48C187.624 115.525 187.611 115.569 187.588 115.607C187.566 115.646 187.533 115.678 187.495 115.7L95.9546 168.75C95.9157 168.769 95.8729 168.779 95.8296 168.779C95.7862 168.779 95.7434 168.769 95.7046 168.75L22.7946 128.27C22.7605 128.252 22.73 128.229 22.7046 128.2L18.3946 121.94C18.3846 121.894 18.3846 121.846 18.3946 121.8V103.31C18.3938 103.26 18.4088 103.21 18.4375 103.169C18.4662 103.128 18.5072 103.097 18.5546 103.08L112.085 70C112.152 69.9747 112.227 69.9747 112.295 70L187.505 115.27Z" fill="#3D3BFF"/>
<path d="M95.8346 169C95.7476 169 95.6619 168.98 95.5846 168.94L22.6846 128.49C22.6149 128.457 22.556 128.405 22.5146 128.34L18.2046 122.09C18.144 122.006 18.1124 121.904 18.1146 121.8V103.31C18.1146 103.207 18.1463 103.107 18.2054 103.023C18.2644 102.939 18.3479 102.875 18.4446 102.84L112.035 69.84C112.1 69.8082 112.172 69.7916 112.245 69.7916C112.317 69.7916 112.389 69.8082 112.455 69.84L187.655 115.06C187.729 115.106 187.79 115.171 187.832 115.248C187.874 115.326 187.896 115.412 187.895 115.5C187.891 115.585 187.866 115.668 187.822 115.741C187.778 115.814 187.717 115.876 187.645 115.92L96.0846 169C96.0028 169.023 95.9164 169.023 95.8346 169V169ZM112.165 70.23L18.5846 103.31V121.8L22.8946 128.06L95.8146 168.53L187.355 115.53L187.485 115.32L187.355 115.53L112.165 70.23Z" fill="black"/>
<path d="M146.475 54.24C146.515 54.2205 146.56 54.2104 146.605 54.2104C146.65 54.2104 146.694 54.2205 146.735 54.24L154.645 58.94C154.683 58.9624 154.716 58.9944 154.738 59.0329C154.761 59.0715 154.774 59.1153 154.775 59.16C154.775 59.2038 154.763 59.2468 154.74 59.2839C154.717 59.3211 154.684 59.351 154.645 59.37L139.375 68.22C139.337 68.2441 139.294 68.257 139.25 68.257C139.205 68.257 139.162 68.2441 139.125 68.22L131.125 63.54C131.088 63.5188 131.057 63.4881 131.036 63.4512C131.015 63.4143 131.004 63.3725 131.005 63.33C131.005 63.2864 131.017 63.2436 131.038 63.2053C131.058 63.1669 131.088 63.1343 131.125 63.11L146.475 54.24Z" fill="black"/>
<path d="M139.245 68.51C139.157 68.5055 139.072 68.4816 138.995 68.44L131.045 63.76C130.969 63.7163 130.906 63.6537 130.862 63.5783C130.818 63.5028 130.795 63.4172 130.795 63.33C130.793 63.2423 130.815 63.1559 130.86 63.0801C130.904 63.0043 130.968 62.942 131.045 62.9L146.355 54C146.431 53.9561 146.517 53.933 146.605 53.933C146.692 53.933 146.779 53.9561 146.855 54L154.775 58.7C154.851 58.7428 154.914 58.8053 154.958 58.8809C155.002 58.9565 155.025 59.0425 155.025 59.13C155.024 59.2172 155.001 59.3028 154.957 59.3783C154.913 59.4537 154.85 59.5163 154.775 59.56L139.505 68.41C139.427 68.4636 139.338 68.4979 139.245 68.51V68.51ZM146.475 54.24L146.605 54.46L131.295 63.33L139.295 68.01L154.565 59.16L146.645 54.46L146.475 54.24Z" fill="black"/>
<path d="M95.9246 142.73C95.9614 142.751 95.9919 142.782 96.0129 142.819C96.034 142.856 96.0449 142.897 96.0446 142.94V165.46C96.0451 165.504 96.0332 165.547 96.0101 165.584C95.9871 165.621 95.954 165.651 95.9146 165.67C95.8773 165.694 95.8339 165.707 95.7896 165.707C95.7452 165.707 95.7018 165.694 95.6646 165.67L26.0146 125.67C24.8336 124.927 23.8627 123.895 23.1946 122.67C22.4714 121.487 22.0682 120.136 22.0246 118.75V105.14C21.9765 104.617 22.0667 104.09 22.2861 103.613C22.5054 103.136 22.8463 102.724 23.2746 102.42C23.754 102.196 24.284 102.104 24.8109 102.151C25.3378 102.199 25.8427 102.384 26.2746 102.69L95.9246 142.73Z" fill="white"/>
<path d="M95.8246 166C95.7368 165.997 95.6511 165.973 95.5746 165.93L25.9246 125.93C24.724 125.158 23.7243 124.112 23.008 122.877C22.2916 121.643 21.8791 120.255 21.8046 118.83V105.22C21.7499 104.653 21.8493 104.081 22.0921 103.565C22.335 103.05 22.7124 102.609 23.1846 102.29C23.6953 102.041 24.2637 101.933 24.8302 101.979C25.3967 102.025 25.9404 102.222 26.4046 102.55L96.0646 142.55C96.1388 142.595 96.2006 142.658 96.2443 142.733C96.288 142.808 96.3121 142.893 96.3146 142.98V165.5C96.3121 165.587 96.288 165.672 96.2443 165.747C96.2006 165.822 96.1388 165.885 96.0646 165.93C95.991 165.971 95.9089 165.995 95.8246 166V166ZM24.4246 102.43C24.0742 102.428 23.7294 102.517 23.4246 102.69C23.0308 102.968 22.7185 103.347 22.5198 103.786C22.3212 104.226 22.2434 104.71 22.2946 105.19V118.8C22.3717 120.136 22.7612 121.436 23.4315 122.594C24.1019 123.752 25.0345 124.737 26.1546 125.47L95.8146 165.47V142.95L95.9346 142.74L95.8146 142.95L26.1546 102.95C25.6377 102.613 25.0407 102.42 24.4246 102.39V102.43Z" fill="black"/>
<path d="M95.5846 168.53C95.5819 168.487 95.5918 168.444 95.6131 168.407C95.6344 168.37 95.6662 168.339 95.7046 168.32L187.245 115.26C187.283 115.241 187.326 115.231 187.37 115.231C187.413 115.231 187.456 115.241 187.495 115.26C187.533 115.282 187.566 115.314 187.588 115.353C187.611 115.391 187.624 115.435 187.625 115.48V118.31C187.625 118.352 187.614 118.394 187.593 118.431C187.572 118.468 187.541 118.499 187.505 118.52L95.9546 171.57C95.9173 171.594 95.8739 171.607 95.8296 171.607C95.7852 171.607 95.7418 171.594 95.7046 171.57C95.6678 171.549 95.6373 171.518 95.6162 171.481C95.5951 171.444 95.5842 171.402 95.5846 171.36V168.53Z" fill="white"/>
<path d="M95.8346 171.86C95.7462 171.862 95.6592 171.837 95.5846 171.79C95.5083 171.747 95.4449 171.685 95.401 171.609C95.357 171.533 95.3341 171.447 95.3346 171.36V168.53C95.3331 168.444 95.3545 168.358 95.3966 168.283C95.4388 168.207 95.5002 168.144 95.5746 168.1L187.125 115.1C187.199 115.056 187.283 115.033 187.37 115.033C187.456 115.033 187.54 115.056 187.615 115.1C187.693 115.142 187.758 115.203 187.804 115.279C187.85 115.355 187.874 115.442 187.875 115.53V118.36C187.876 118.448 187.854 118.534 187.81 118.61C187.766 118.686 187.702 118.748 187.625 118.79L96.0846 171.79C96.0099 171.837 95.923 171.862 95.8346 171.86V171.86ZM187.375 115.48L95.8346 168.53V171.36L187.375 118.31V115.48Z" fill="black"/>
<path d="M95.5546 146C95.5535 145.956 95.564 145.912 95.585 145.874C95.6061 145.835 95.637 145.803 95.6746 145.78L180.745 96.47C180.782 96.4459 180.825 96.433 180.87 96.433C180.914 96.433 180.957 96.4459 180.995 96.47C181.034 96.489 181.067 96.5188 181.09 96.556C181.113 96.5932 181.125 96.6362 181.125 96.68V116.12C181.125 116.165 181.113 116.209 181.09 116.248C181.067 116.287 181.034 116.318 180.995 116.34L95.9446 165.67C95.9074 165.694 95.8639 165.707 95.8196 165.707C95.7752 165.707 95.7318 165.694 95.6946 165.67C95.6578 165.649 95.6273 165.618 95.6062 165.581C95.5851 165.544 95.5742 165.502 95.5746 165.46L95.5546 146Z" fill="white"/>
<path d="M95.8246 166C95.7369 165.997 95.6511 165.973 95.5746 165.93C95.499 165.886 95.4362 165.824 95.3923 165.748C95.3485 165.673 95.3251 165.587 95.3246 165.5V146.06C95.3233 145.972 95.3448 145.886 95.3868 145.809C95.4288 145.731 95.4901 145.667 95.5646 145.62L180.645 96.31C180.721 96.2661 180.807 96.243 180.895 96.243C180.982 96.243 181.069 96.2661 181.145 96.31C181.219 96.3551 181.281 96.4181 181.324 96.4932C181.368 96.5683 181.392 96.6532 181.395 96.74V116.18C181.394 116.269 181.37 116.355 181.327 116.432C181.283 116.509 181.22 116.574 181.145 116.62L96.0746 165.89C96.0018 165.947 95.9158 165.985 95.8246 166ZM95.8246 146.06V165.5L180.905 116.19V96.74L95.8046 146L95.8246 146.06Z" fill="black"/>
<path d="M115.075 48.25L187.465 89.94C187.504 89.959 187.537 89.9889 187.56 90.0261C187.583 90.0633 187.595 90.1062 187.595 90.15V93C187.594 93.0436 187.583 93.0864 187.562 93.1248C187.541 93.1631 187.511 93.1957 187.475 93.22L95.9246 146.25C95.8858 146.269 95.843 146.279 95.7996 146.279C95.7562 146.279 95.7134 146.269 95.6746 146.25L18.4546 101.56C18.4177 101.536 18.3873 101.504 18.3663 101.465C18.3453 101.427 18.3344 101.384 18.3346 101.34C18.3342 101.297 18.3451 101.256 18.3662 101.219C18.3873 101.182 18.4178 101.151 18.4546 101.13L110.455 47.79C111.685 47.11 113.325 47.25 115.075 48.25Z" fill="#3D3BFF"/>
<path d="M95.8046 146.53C95.7162 146.532 95.6292 146.507 95.5546 146.46L18.3346 101.78C18.2576 101.736 18.1936 101.673 18.1491 101.597C18.1045 101.52 18.0811 101.433 18.0811 101.345C18.0811 101.257 18.1045 101.17 18.1491 101.093C18.1936 101.017 18.2576 100.954 18.3346 100.91L110.335 47.57C111.685 46.83 113.425 47 115.225 48.04L187.615 89.72C187.69 89.7636 187.753 89.8263 187.797 89.9017C187.841 89.9772 187.864 90.0628 187.865 90.15V93C187.866 93.0877 187.844 93.1741 187.8 93.2499C187.756 93.3257 187.692 93.388 187.615 93.43L96.0546 146.46C95.9799 146.507 95.893 146.532 95.8046 146.53V146.53ZM112.155 47.62C111.601 47.6105 111.054 47.7412 110.565 48L18.5646 101.34L95.8046 146L187.345 93V90.15L114.955 48.47L115.075 48.25L114.955 48.47C114.111 47.9474 113.146 47.6544 112.155 47.62V47.62Z" fill="black"/>
<path d="M95.5446 143.19C95.552 143.15 95.5684 143.112 95.5927 143.079C95.6169 143.046 95.6484 143.019 95.6846 143L187.235 90C187.273 89.9791 187.316 89.9686 187.359 89.9693C187.402 89.9701 187.445 89.9822 187.482 90.0044C187.52 90.0266 187.551 90.0582 187.572 90.096C187.593 90.1338 187.605 90.1765 187.605 90.22V93C187.604 93.0447 187.591 93.0885 187.568 93.1271C187.546 93.1656 187.513 93.1976 187.475 93.22L95.9346 146.22C95.8973 146.244 95.8539 146.257 95.8096 146.257C95.7652 146.257 95.7218 146.244 95.6846 146.22C95.6452 146.201 95.612 146.171 95.589 146.134C95.5659 146.097 95.554 146.054 95.5546 146.01L95.5446 143.19Z" fill="white"/>
<path d="M95.7946 146.52C95.7063 146.521 95.6197 146.496 95.5446 146.45C95.469 146.406 95.4062 146.344 95.3623 146.268C95.3184 146.193 95.2951 146.107 95.2946 146.02V143.19C95.293 143.102 95.3155 143.016 95.3595 142.94C95.4036 142.864 95.4676 142.802 95.5446 142.76L187.085 89.76C187.161 89.7161 187.247 89.693 187.335 89.693C187.422 89.693 187.509 89.7161 187.585 89.76C187.66 89.8036 187.723 89.8663 187.767 89.9417C187.811 90.0171 187.834 90.1027 187.835 90.19V93C187.834 93.0872 187.811 93.1728 187.767 93.2483C187.723 93.3237 187.66 93.3863 187.585 93.43L96.0346 146.43C95.9656 146.484 95.8819 146.515 95.7946 146.52V146.52ZM95.7946 143.19V146L187.345 93V90.14L95.7946 143.19Z" fill="black"/>
<path d="M19.9046 100.88C19.8509 100.878 19.799 100.86 19.756 100.828C19.713 100.796 19.6811 100.751 19.6646 100.7C19.6541 100.647 19.6599 100.591 19.6813 100.541C19.7027 100.492 19.7387 100.449 19.7846 100.42L111.405 47.33C111.45 47.3167 111.499 47.3167 111.545 47.33C112.297 47.3815 113.043 47.4986 113.775 47.68V47.68C114.882 48.0759 115.948 48.5817 116.955 49.19L118.285 49.98L118.695 50.24L118.805 50.31L123.035 52.7C123.072 52.7234 123.102 52.7559 123.124 52.7944C123.145 52.8328 123.156 52.8761 123.156 52.92C123.156 52.9639 123.145 53.0072 123.124 53.0457C123.102 53.0841 123.072 53.1166 123.035 53.14L31.4446 106.21C31.4058 106.229 31.363 106.239 31.3196 106.239C31.2762 106.239 31.2334 106.229 31.1946 106.21L31.3146 105.99L31.1946 106.21H31.1246L30.8646 106.06L29.9246 105.52L27.0046 103.86L23.9346 102.15L22.8046 101.55L22.2146 101.26C21.7532 101.116 21.2767 101.025 20.7946 100.99H20.1846H19.9346L19.9046 100.88Z" fill="white"/>
<path d="M31.3146 106.49C31.2308 106.49 31.1483 106.47 31.0746 106.43V106.43L29.7846 105.7L26.8446 104C25.7646 103.39 24.6646 102.77 23.7846 102.29L22.6546 101.69C22.4735 101.586 22.2866 101.492 22.0946 101.41C21.6558 101.275 21.2027 101.191 20.7446 101.16H20.1446H20.0046L19.9246 100.9V101.15C19.8171 101.145 19.7142 101.105 19.6311 101.037C19.548 100.968 19.4892 100.875 19.4634 100.771C19.4375 100.666 19.4461 100.556 19.4877 100.457C19.5294 100.358 19.6019 100.275 19.6946 100.22L111.285 47.11C111.37 47.0612 111.467 47.037 111.565 47.04C112.33 47.0956 113.089 47.216 113.835 47.4C114.968 47.7886 116.054 48.3017 117.075 48.93C117.605 49.23 118.075 49.52 118.425 49.73L118.925 50.05L123.185 52.47C123.262 52.5111 123.327 52.5732 123.371 52.6492C123.415 52.7252 123.437 52.8121 123.435 52.9C123.436 52.9877 123.414 53.0741 123.37 53.1499C123.326 53.2257 123.262 53.288 123.185 53.33L31.5646 106.42C31.4904 106.469 31.4031 106.493 31.3146 106.49ZM19.9146 100.63H20.1646H20.7846C21.2874 100.663 21.7843 100.757 22.2646 100.91L22.8846 101.21L24.0246 101.82L27.0946 103.53L30.0146 105.19L31.1046 105.81C31.1201 105.781 31.1415 105.755 31.1673 105.735C31.1932 105.714 31.223 105.699 31.2549 105.691C31.2869 105.682 31.3202 105.681 31.3528 105.686C31.3854 105.691 31.4167 105.702 31.4446 105.72C31.4836 105.739 31.5152 105.771 31.5346 105.81L122.935 52.81L118.685 50.5H118.625L118.125 50.19C117.785 49.98 117.325 49.7 116.805 49.4C115.824 48.7824 114.777 48.2759 113.685 47.89C112.973 47.7086 112.247 47.5915 111.515 47.54L19.9146 100.63Z" fill="black"/>
<path d="M125.685 105.87C125.647 105.892 125.603 105.903 125.56 105.903C125.516 105.903 125.473 105.892 125.435 105.87L90.4946 85.68C90.4552 85.661 90.422 85.6311 90.399 85.5939C90.376 85.5567 90.364 85.5137 90.3646 85.47C90.3655 85.4252 90.3779 85.3815 90.4007 85.3429C90.4235 85.3044 90.4558 85.2724 90.4946 85.25L110.735 73.52C110.773 73.5006 110.816 73.4905 110.86 73.4905C110.903 73.4905 110.946 73.5006 110.985 73.52L145.865 93.74C145.9 93.7627 145.93 93.7936 145.95 93.8302C145.971 93.8668 145.983 93.9079 145.985 93.95C145.985 93.995 145.973 94.0391 145.95 94.0779C145.927 94.1166 145.894 94.1484 145.855 94.17L125.685 105.87Z" fill="white"/>
<path d="M125.535 106.16C125.446 106.162 125.359 106.137 125.285 106.09L90.3646 85.9C90.2874 85.8579 90.223 85.7957 90.1781 85.72C90.1332 85.6443 90.1095 85.558 90.1095 85.47C90.1095 85.3821 90.1332 85.2957 90.1781 85.2201C90.223 85.1444 90.2874 85.0822 90.3646 85.04L110.605 73.31C110.681 73.2661 110.767 73.243 110.855 73.243C110.942 73.243 111.029 73.2661 111.105 73.31L145.985 93.52C146.06 93.5637 146.123 93.6263 146.167 93.7017C146.211 93.7772 146.234 93.8628 146.235 93.95C146.234 94.0386 146.21 94.1255 146.167 94.2025C146.123 94.2795 146.06 94.344 145.985 94.39L125.785 106.09C125.709 106.136 125.623 106.161 125.535 106.16V106.16ZM110.855 73.74L90.6146 85.47L125.535 105.66L125.655 105.88L125.535 105.66L145.735 94L110.855 73.74Z" fill="black"/>
<path d="M95.9546 168.32C95.994 168.339 96.0271 168.369 96.0501 168.406C96.0732 168.443 96.0851 168.486 96.0846 168.53V171.36C96.0851 171.404 96.0732 171.447 96.0501 171.484C96.0271 171.521 95.994 171.551 95.9546 171.57C95.9173 171.594 95.8739 171.607 95.8296 171.607C95.7852 171.607 95.7418 171.594 95.7046 171.57L23.3146 129.89C21.4425 128.673 19.8837 127.032 18.7647 125.1C17.6458 123.168 16.9982 120.999 16.8746 118.77V118.77V105.16C16.8746 103.1 17.5946 101.58 18.8746 100.86C20.1546 100.14 21.7946 100.26 23.5746 101.29L95.9246 143C95.9609 143.024 95.9907 143.057 96.0116 143.095C96.0325 143.134 96.0438 143.176 96.0446 143.22V146C96.0473 146.043 96.0373 146.086 96.016 146.123C95.9947 146.16 95.9629 146.191 95.9246 146.21C95.8873 146.234 95.8439 146.247 95.7996 146.247C95.7552 146.247 95.7118 146.234 95.6746 146.21L23.2846 104.55C22.9314 104.291 22.5156 104.13 22.0798 104.084C21.644 104.038 21.2039 104.109 20.8046 104.29C20.4517 104.546 20.1732 104.891 19.9975 105.29C19.8218 105.689 19.7552 106.127 19.8046 106.56V106.56V120.18C19.8786 121.473 20.2557 122.731 20.9054 123.851C21.5551 124.971 22.4591 125.923 23.5446 126.63L95.9546 168.32Z" fill="white"/>
<path d="M95.8346 171.86C95.7462 171.862 95.6592 171.837 95.5846 171.79L23.1946 130.11C21.2844 128.87 19.6938 127.197 18.5521 125.226C17.4105 123.256 16.7501 121.044 16.6246 118.77V105.16C16.6246 103.03 17.3546 101.43 18.7146 100.64C20.0746 99.85 21.8146 100.01 23.6646 101.07L96.0546 142.75C96.1303 142.796 96.193 142.861 96.2367 142.938C96.2805 143.015 96.3038 143.101 96.3046 143.19V146C96.3062 146.088 96.2837 146.174 96.2396 146.25C96.1955 146.326 96.1315 146.388 96.0546 146.43C95.9786 146.474 95.8923 146.497 95.8046 146.497C95.7168 146.497 95.6306 146.474 95.5546 146.43L23.1546 104.77C22.8402 104.535 22.4699 104.387 22.0805 104.34C21.6911 104.292 21.296 104.348 20.9346 104.5C20.62 104.736 20.373 105.05 20.2186 105.412C20.0641 105.774 20.0075 106.17 20.0546 106.56V120.18C20.1007 121.436 20.4692 122.658 21.1246 123.73C21.7365 124.829 22.6173 125.754 23.6846 126.42L96.0746 168.1C96.1527 168.142 96.2181 168.203 96.2639 168.279C96.3097 168.355 96.3341 168.442 96.3346 168.53V171.36C96.334 171.447 96.3107 171.533 96.2668 171.608C96.223 171.684 96.1601 171.746 96.0846 171.79C96.0095 171.836 95.9228 171.861 95.8346 171.86V171.86ZM20.6046 100.65C20.0256 100.64 19.455 100.789 18.9546 101.08C17.7646 101.77 17.1046 103.21 17.1146 105.16V118.77C17.1883 120.973 17.8327 123.12 18.9846 125C20.0446 126.922 21.5803 128.541 23.4446 129.7L95.8346 171.38V168.55L23.4346 126.87C22.3145 126.137 21.3819 125.152 20.7115 123.994C20.0412 122.836 19.6517 121.536 19.5746 120.2V106.58C19.5183 106.101 19.5917 105.615 19.7869 105.173C19.9821 104.732 20.2921 104.351 20.6846 104.07C21.1212 103.87 21.6032 103.789 22.0811 103.837C22.559 103.884 23.0158 104.058 23.4046 104.34L95.7946 146V143.17L23.4046 101.51C22.5619 100.985 21.5968 100.688 20.6046 100.65V100.65Z" fill="black"/>
<path d="M116.525 108.06C116.489 108.1 116.443 108.128 116.391 108.141C116.339 108.153 116.284 108.149 116.235 108.13L89.1646 97C89.1284 96.9864 89.0964 96.9636 89.0718 96.9338C89.0472 96.9039 89.0309 96.8681 89.0246 96.83C89.0078 96.7957 88.9991 96.7581 88.9991 96.72C88.9991 96.6819 89.0078 96.6442 89.0246 96.61L96.1746 88.32C96.2083 88.2808 96.2533 88.253 96.3035 88.2405C96.3536 88.228 96.4064 88.2313 96.4546 88.25L123.565 99.4C123.602 99.4129 123.636 99.4354 123.662 99.4652C123.688 99.495 123.706 99.5311 123.715 99.57C123.731 99.6042 123.74 99.6418 123.74 99.68C123.74 99.7181 123.731 99.7557 123.715 99.79L116.525 108.06Z" fill="#FCACA9"/>
<path d="M116.335 108.4C116.272 108.415 116.207 108.415 116.145 108.4L89.0746 97.22C89.0017 97.1903 88.9367 97.1442 88.8847 97.0852C88.8327 97.0262 88.795 96.956 88.7746 96.88C88.7543 96.8033 88.7537 96.7228 88.773 96.6458C88.7922 96.5689 88.8306 96.4981 88.8846 96.44L96.0346 88.15C96.1017 88.0683 96.1935 88.0104 96.2963 87.9852C96.399 87.96 96.5072 87.9687 96.6046 88.01L123.685 99.17C123.756 99.2004 123.82 99.2471 123.871 99.3066C123.921 99.366 123.957 99.4364 123.976 99.5122C123.994 99.588 123.995 99.6671 123.977 99.7431C123.96 99.8191 123.924 99.89 123.875 99.95L116.685 108.23C116.594 108.33 116.469 108.391 116.335 108.4V108.4ZM96.4146 88.47L89.2646 96.76L116.335 107.9L123.475 99.63L96.4146 88.47Z" fill="black"/>
<path d="M187.845 78.93C187.881 78.9543 187.911 78.9869 187.932 79.0253C187.953 79.0636 187.964 79.1064 187.965 79.15C187.964 79.1935 187.952 79.236 187.929 79.273C187.906 79.31 187.873 79.3401 187.835 79.36L96.2946 132.41C96.2573 132.434 96.2139 132.447 96.1696 132.447C96.1252 132.447 96.0818 132.434 96.0446 132.41L23.1346 91.94C23.0983 91.9214 23.0673 91.8939 23.0446 91.86L18.7346 85.61C18.7245 85.5639 18.7245 85.5162 18.7346 85.47V73.59C18.7344 73.5412 18.7485 73.4935 18.7752 73.4526C18.8018 73.4117 18.8398 73.3795 18.8846 73.36L112.465 33.69C112.5 33.6724 112.54 33.6632 112.58 33.6632C112.619 33.6632 112.659 33.6724 112.695 33.69L187.845 78.93Z" fill="#3D3BFF"/>
<path d="M96.1746 132.7C96.0868 132.697 96.0011 132.673 95.9246 132.63L23.0146 92.16C22.9465 92.1203 22.8884 92.0656 22.8446 92L18.5346 85.75C18.4754 85.6687 18.4438 85.5706 18.4446 85.47V73.59C18.4429 73.4922 18.4706 73.396 18.5241 73.314C18.5775 73.2321 18.6543 73.168 18.7446 73.13L112.335 33.46C112.405 33.4256 112.482 33.4077 112.56 33.4077C112.638 33.4077 112.715 33.4256 112.785 33.46L187.985 78.69C188.06 78.7337 188.123 78.7963 188.167 78.8717C188.211 78.9472 188.234 79.0328 188.235 79.12C188.231 79.2067 188.207 79.2912 188.163 79.3662C188.12 79.4412 188.058 79.5043 187.985 79.55L96.4246 132.63C96.3475 132.672 96.262 132.696 96.1746 132.7V132.7ZM112.505 33.92L18.9246 73.59V85.47L23.2346 91.72L96.1746 132.2L187.685 79.14L112.505 33.92Z" fill="black"/>
<path d="M139.445 25.32C139.483 25.298 139.526 25.2865 139.57 25.2865C139.613 25.2865 139.657 25.298 139.695 25.32L147.615 30C147.652 30.0229 147.683 30.0552 147.704 30.0939C147.725 30.1325 147.736 30.176 147.735 30.22C147.734 30.2636 147.723 30.3064 147.702 30.3448C147.681 30.3831 147.651 30.4158 147.615 30.44L132.335 39.29C132.297 39.3119 132.253 39.3235 132.21 39.3235C132.166 39.3235 132.123 39.3119 132.085 39.29L124.085 34.62C124.046 34.5976 124.013 34.5656 123.991 34.5271C123.968 34.4885 123.955 34.4448 123.955 34.4C123.954 34.3563 123.966 34.3133 123.989 34.2761C124.012 34.2389 124.045 34.209 124.085 34.19L139.445 25.32Z" fill="#3D3BFF"/>
<path d="M132.215 39.59C132.126 39.593 132.039 39.5686 131.965 39.52L123.965 34.84C123.887 34.7979 123.823 34.7357 123.778 34.66C123.733 34.5843 123.71 34.498 123.71 34.41C123.71 34.3221 123.733 34.2357 123.778 34.1601C123.823 34.0844 123.887 34.0222 123.965 33.98L139.275 25.11C139.352 25.0662 139.44 25.0432 139.53 25.0432C139.619 25.0432 139.707 25.0662 139.785 25.11L147.705 29.81C147.778 29.8556 147.838 29.919 147.88 29.9941C147.922 30.0693 147.944 30.1539 147.945 30.24C147.946 30.3277 147.924 30.4141 147.88 30.4899C147.836 30.5657 147.772 30.628 147.695 30.67L132.425 39.52C132.362 39.5605 132.289 39.5845 132.215 39.59ZM139.565 25.54L124.255 34.41L132.255 39.09L147.525 30.24L139.605 25.54H139.565Z" fill="black"/>
<path d="M96.3846 115.5C96.3831 115.458 96.3714 115.417 96.3505 115.38C96.3296 115.344 96.3001 115.313 96.2646 115.29L26.6046 75.29L96.3846 115.5ZM96.3846 115.5V129.12C96.3837 129.165 96.3712 129.209 96.3485 129.247C96.3257 129.286 96.2933 129.318 96.2546 129.34L96.3846 115.5ZM96.3546 115.5L96.2546 129.34L96.3546 115.5ZM96.2546 129.34C96.2157 129.359 96.1729 129.369 96.1296 129.369C96.0862 129.369 96.0434 129.359 96.0046 129.34H96.2546ZM96.2546 129.34H96.0046H96.2546ZM96.0046 129.34L26.3546 89.34L96.0046 129.34ZM96.0046 129.34L26.3546 89.34L96.0046 129.34ZM26.3546 89.34C25.1736 88.5975 24.2027 87.5646 23.5346 86.34C22.8114 85.1568 22.4082 83.806 22.3646 82.42L26.3546 89.34ZM26.3646 89.31L22.3646 82.42L26.3646 89.31ZM22.3646 82.42V77.71C22.3194 77.1876 22.412 76.6625 22.6331 76.187C22.8542 75.7115 23.196 75.3022 23.6246 75C24.1016 74.7689 24.6323 74.671 25.1604 74.7168C25.6885 74.7626 26.1944 74.9503 26.6246 75.26L22.3646 82.42Z" fill="white"/>
<path d="M96.1646 129.62C96.0762 129.622 95.9892 129.597 95.9146 129.55L96.0346 129.34L95.9146 129.55L26.2646 89.55L26.3846 89.33L26.2646 89.55C25.0641 88.778 24.0643 87.7316 23.348 86.4971C22.6316 85.2625 22.2191 83.8753 22.1446 82.45V82.45V77.74C22.0921 77.1729 22.1924 76.6021 22.4351 76.0868C22.6778 75.5716 23.0539 75.1307 23.5246 74.81C24.0218 74.5619 24.5754 74.4489 25.13 74.4823C25.6846 74.5156 26.2207 74.6942 26.6846 75V75L96.3346 115C96.4089 115.045 96.4707 115.108 96.5143 115.183C96.558 115.258 96.5822 115.343 96.5846 115.43V115.43V129.04C96.5841 129.127 96.5607 129.213 96.5168 129.288C96.473 129.364 96.4102 129.426 96.3346 129.47C96.2917 129.534 96.2331 129.585 96.1646 129.62V129.62ZM26.5646 89.13L96.0446 129.05L96.1346 115.65L26.6846 75.6L22.6846 82.42L26.5646 89.13ZM22.7546 83.55C22.9397 84.4887 23.2775 85.3906 23.7546 86.22C24.2257 87.0586 24.838 87.8096 25.5646 88.44L22.7546 83.55ZM24.7546 74.95C24.4042 74.9476 24.0594 75.0372 23.7546 75.21C23.3608 75.4884 23.0485 75.8669 22.8498 76.3064C22.6512 76.7459 22.5734 77.2304 22.6246 77.71V81.51L26.2346 75.36C25.7788 75.1284 25.2758 75.0052 24.7646 75L24.7546 74.95Z" fill="black"/>
<path d="M95.9246 116.34C95.9609 116.364 95.9907 116.397 96.0116 116.435C96.0325 116.474 96.0438 116.516 96.0446 116.56V129.03C96.0451 129.074 96.0332 129.117 96.0101 129.154C95.9871 129.191 95.954 129.221 95.9146 129.24C95.8773 129.264 95.8339 129.277 95.7896 129.277C95.7452 129.277 95.7018 129.264 95.6646 129.24L26.0146 89.24C24.8336 88.4975 23.8627 87.4646 23.1946 86.24C22.4714 85.0568 22.0682 83.706 22.0246 82.32V78.75C21.9783 78.2285 22.0694 77.704 22.2887 77.2285C22.508 76.7531 22.8479 76.3434 23.2746 76.04C23.7516 75.8089 24.2823 75.711 24.8104 75.7568C25.3385 75.8025 25.8444 75.9902 26.2746 76.3L95.9246 116.34Z" fill="white"/>
<path d="M95.8246 129.53C95.7369 129.527 95.6511 129.503 95.5746 129.46L25.9246 89.46C24.7241 88.688 23.7243 87.6416 23.008 86.4071C22.2916 85.1726 21.8791 83.7854 21.8046 82.36V78.79C21.7521 78.2229 21.8524 77.6521 22.0951 77.1368C22.3378 76.6216 22.714 76.1807 23.1846 75.86C23.6962 75.6121 24.2651 75.5064 24.8316 75.5539C25.3981 75.6014 25.9414 75.8004 26.4046 76.13L96.0646 116.13C96.1403 116.176 96.203 116.241 96.2467 116.318C96.2905 116.395 96.3138 116.481 96.3146 116.57V129.04C96.3122 129.127 96.288 129.212 96.2443 129.287C96.2007 129.362 96.1389 129.425 96.0646 129.47C95.9902 129.508 95.9081 129.528 95.8246 129.53ZM24.4246 76C24.0729 75.9972 23.7271 76.0906 23.4246 76.27C23.0308 76.5461 22.7183 76.9228 22.5196 77.3607C22.3209 77.7986 22.2432 78.2819 22.2946 78.76V82.33C22.3729 83.667 22.7638 84.967 23.436 86.1255C24.1081 87.2839 25.0427 88.2685 26.1646 89L95.8246 129V116.53L95.9446 116.31L95.8246 116.53L26.1646 76.53C25.6418 76.2022 25.0413 76.0193 24.4246 76V76Z" fill="black"/>
<path d="M95.9246 132.2C95.9223 132.156 95.9324 132.112 95.9536 132.073C95.9747 132.034 96.0062 132.002 96.0446 131.98L187.585 78.98C187.622 78.9559 187.665 78.9431 187.71 78.9431C187.754 78.9431 187.797 78.9559 187.835 78.98C187.874 78.999 187.907 79.0289 187.93 79.0661C187.953 79.1033 187.965 79.1462 187.965 79.19V82C187.964 82.0436 187.953 82.0864 187.932 82.1247C187.911 82.1631 187.881 82.1957 187.845 82.22L96.2946 135.24C96.2564 135.261 96.2135 135.271 96.1701 135.271C96.1266 135.27 96.0841 135.258 96.0468 135.236C96.0094 135.213 95.9785 135.182 95.9571 135.144C95.9357 135.106 95.9244 135.063 95.9246 135.02V132.2Z" fill="white"/>
<path d="M96.1746 135.52C96.086 135.523 95.9987 135.499 95.9246 135.45C95.8455 135.406 95.7808 135.34 95.7382 135.26C95.6956 135.181 95.677 135.09 95.6846 135V132.2C95.6833 132.112 95.7047 132.026 95.7468 131.948C95.7888 131.871 95.8501 131.806 95.9246 131.76L187.475 78.76C187.551 78.7161 187.637 78.693 187.725 78.693C187.812 78.693 187.899 78.7161 187.975 78.76C188.05 78.8036 188.113 78.8663 188.157 78.9417C188.201 79.0171 188.224 79.1027 188.225 79.19V82C188.226 82.0876 188.204 82.1741 188.16 82.2499C188.116 82.3257 188.052 82.388 187.975 82.43L96.4346 135.43C96.3594 135.486 96.2685 135.518 96.1746 135.52ZM96.1746 132.2V135L187.685 82V79.14L96.1746 132.19V132.2Z" fill="black"/>
<path d="M95.8946 109.68C95.8912 109.636 95.9007 109.591 95.922 109.552C95.9433 109.513 95.9754 109.481 96.0146 109.46L181.085 60.15C181.123 60.1306 181.166 60.1205 181.21 60.1205C181.253 60.1205 181.296 60.1306 181.335 60.15C181.373 60.1724 181.406 60.2044 181.428 60.2429C181.451 60.2815 181.464 60.3252 181.465 60.37V79.81C181.464 79.8548 181.451 79.8985 181.428 79.9371C181.406 79.9756 181.373 80.0076 181.335 80.03L96.2846 129.34C96.2464 129.361 96.2035 129.371 96.1601 129.371C96.1166 129.37 96.0742 129.358 96.0368 129.336C95.9995 129.313 95.9685 129.282 95.9471 129.244C95.9257 129.206 95.9145 129.163 95.9146 129.12L95.8946 109.68Z" fill="white"/>
<path d="M96.1646 129.62C96.0762 129.622 95.9892 129.597 95.9146 129.55C95.8383 129.507 95.7749 129.445 95.7309 129.369C95.687 129.293 95.6641 129.207 95.6646 129.12V109.68C95.6641 109.594 95.6859 109.509 95.728 109.433C95.77 109.358 95.8308 109.295 95.9046 109.25L180.985 59.94C181.06 59.8962 181.146 59.8731 181.234 59.873C181.321 59.8729 181.407 59.8957 181.483 59.9392C181.559 59.9827 181.622 60.0454 181.666 60.121C181.711 60.1966 181.734 60.2825 181.735 60.37V79.81C181.732 79.8968 181.708 79.9817 181.664 80.0568C181.621 80.1319 181.559 80.1949 181.485 80.24L96.4146 129.55C96.3399 129.597 96.253 129.622 96.1646 129.62V129.62ZM96.1646 109.68V129.12L181.245 79.81V60.37L96.1446 109.68H96.1646Z" fill="black"/>
<path d="M100.225 34.53L32.0146 90.22L87.1246 111.14L155.335 55.46L100.225 34.53Z" fill="#FCACA9"/>
<path d="M87.1246 111.39H87.0346L31.9246 90.45C31.8842 90.4342 31.8484 90.4085 31.8204 90.3754C31.7925 90.3422 31.7733 90.3025 31.7646 90.26C31.7585 90.2157 31.7636 90.1705 31.7793 90.1287C31.795 90.0868 31.8209 90.0494 31.8546 90.02L100.065 34.34C100.103 34.3181 100.146 34.3065 100.19 34.3065C100.233 34.3065 100.277 34.3181 100.315 34.34L155.425 55.26C155.464 55.2781 155.499 55.3058 155.525 55.3408C155.551 55.3758 155.568 55.4168 155.575 55.46C155.583 55.5029 155.579 55.5474 155.563 55.5881C155.547 55.6289 155.52 55.6642 155.485 55.69L87.2846 111.34C87.2364 111.37 87.1813 111.387 87.1246 111.39V111.39ZM32.5046 90.14L87.0746 110.86L154.835 55.54L100.265 34.82L32.5046 90.14Z" fill="black"/>
<path d="M115.785 20L188.175 61.68C188.213 61.7024 188.246 61.7344 188.268 61.7729C188.291 61.8115 188.304 61.8552 188.305 61.9V64.73C188.305 64.7725 188.294 64.8143 188.273 64.8512C188.252 64.8881 188.221 64.9187 188.185 64.94L96.6846 117.94C96.6473 117.964 96.6039 117.977 96.5596 117.977C96.5152 117.977 96.4718 117.964 96.4346 117.94L19.1646 73.26C19.1274 73.2366 19.0967 73.2041 19.0755 73.1656C19.0543 73.1272 19.0431 73.0839 19.0431 73.04C19.0431 72.996 19.0543 72.9528 19.0755 72.9143C19.0967 72.8759 19.1274 72.8434 19.1646 72.82L111.165 19.48C112.395 18.81 114.035 18.94 115.785 20Z" fill="white"/>
<path d="M96.5146 118.23C96.4267 118.228 96.3406 118.204 96.2646 118.16L19.0446 73.47C18.9674 73.4278 18.903 73.3656 18.8581 73.29C18.8132 73.2143 18.7895 73.128 18.7895 73.04C18.7895 72.952 18.8132 72.8657 18.8581 72.79C18.903 72.7143 18.9674 72.6522 19.0446 72.61L111.045 19.27C112.395 18.53 114.135 18.7 115.935 19.73L188.325 61.42C188.4 61.4636 188.463 61.5263 188.507 61.6017C188.551 61.6771 188.574 61.7627 188.575 61.85V64.68C188.574 64.7672 188.551 64.8528 188.507 64.9283C188.463 65.0037 188.4 65.0664 188.325 65.11L96.7646 118.16C96.688 118.203 96.6023 118.227 96.5146 118.23ZM112.865 19.31C112.31 19.3035 111.763 19.4377 111.275 19.7L19.2946 73L96.5146 117.69L188.055 64.69V61.85L115.685 20.17L115.805 19.95L115.685 20.17C114.836 19.6414 113.864 19.3449 112.865 19.31V19.31Z" fill="black"/>
<path d="M95.8846 115.2C95.8853 115.156 95.8966 115.114 95.9175 115.075C95.9384 115.037 95.9683 115.004 96.0046 114.98L187.905 61.72C187.943 61.6992 187.986 61.6886 188.029 61.6894C188.073 61.6901 188.115 61.7022 188.152 61.7244C188.19 61.7467 188.221 61.7782 188.242 61.816C188.263 61.8538 188.275 61.8966 188.275 61.94V64.77C188.275 64.8138 188.263 64.8567 188.24 64.8939C188.217 64.9311 188.184 64.961 188.145 64.98L96.2646 118.25C96.2258 118.269 96.183 118.279 96.1396 118.279C96.0962 118.279 96.0534 118.269 96.0146 118.25C95.9758 118.228 95.9435 118.196 95.9207 118.157C95.8979 118.119 95.8855 118.075 95.8846 118.03V115.2Z" fill="white"/>
<path d="M96.1346 118.53C96.0463 118.531 95.9597 118.506 95.8846 118.46C95.8129 118.408 95.7564 118.339 95.7212 118.258C95.686 118.177 95.6734 118.088 95.6846 118V115.2C95.6841 115.114 95.7059 115.029 95.748 114.953C95.79 114.878 95.8509 114.815 95.9246 114.77L187.825 61.51C187.901 61.468 187.987 61.446 188.075 61.446C188.162 61.446 188.248 61.468 188.325 61.51C188.402 61.5545 188.465 61.6187 188.509 61.6961C188.553 61.7734 188.576 61.8611 188.575 61.95V64.78C188.572 64.8669 188.548 64.9517 188.504 65.0269C188.461 65.102 188.399 65.1649 188.325 65.21L96.3846 118.46C96.3104 118.509 96.2231 118.533 96.1346 118.53ZM96.1346 115.2V118L188.035 64.74V61.94L96.1346 115.2Z" fill="black"/>
<path d="M31.5346 77.78H31.4646L31.2046 77.63L30.2346 77L27.3146 75.35C26.2346 74.74 25.1246 74.12 24.2446 73.64L23.1146 73.03L22.5246 72.74C22.0632 72.5958 21.5867 72.5052 21.1046 72.47H20.4946H20.2446C20.1346 72.47 19.6846 72.66 19.6646 72.55C19.6446 72.44 111.745 18.9 111.745 18.9C111.79 18.8861 111.839 18.8861 111.885 18.9C112.633 18.9508 113.376 19.0679 114.105 19.25V19.25C115.216 19.6374 116.282 20.1437 117.285 20.76C117.805 21.05 118.285 21.34 118.615 21.55L119.025 21.8L119.135 21.87L123.365 24.27C123.403 24.2895 123.435 24.3197 123.456 24.3571C123.477 24.3944 123.487 24.4371 123.485 24.48C123.487 24.5242 123.477 24.5681 123.456 24.6069C123.434 24.6457 123.403 24.678 123.365 24.7L31.7846 77.78C31.7473 77.8041 31.7039 77.817 31.6596 77.817C31.6152 77.817 31.5718 77.8041 31.5346 77.78" fill="#3D3BFF"/>
<path d="M31.6846 78.07C31.5969 78.0669 31.5111 78.0429 31.4346 78L31.0946 77.81L30.1446 77.27L27.1846 75.6L24.1246 73.9L22.9946 73.29C22.8143 73.1873 22.6272 73.0971 22.4346 73.02C21.9964 72.8804 21.5433 72.7931 21.0846 72.76H20.4846H20.2346H20.1046C19.9277 72.8287 19.7315 72.8287 19.5546 72.76C19.4896 72.7167 19.4405 72.6536 19.4146 72.58C19.3646 72.38 19.3646 72.38 23.4846 69.97C26.0046 68.49 29.5946 66.39 33.9146 63.88C42.5446 58.88 54.0546 52.14 65.5646 45.44L111.625 18.67C111.706 18.6135 111.806 18.5886 111.905 18.6C112.671 18.6507 113.43 18.7712 114.175 18.96C115.31 19.3442 116.397 19.8575 117.415 20.49C117.945 20.79 118.415 21.08 118.765 21.29L119.275 21.61L123.525 24C123.602 24.042 123.666 24.1043 123.71 24.1801C123.754 24.2559 123.776 24.3423 123.775 24.43C123.776 24.5189 123.753 24.6066 123.709 24.6839C123.665 24.7613 123.602 24.8255 123.525 24.87L31.9046 78C31.837 78.0386 31.762 78.0625 31.6846 78.07ZM20.6846 72.23H21.1546C21.658 72.2585 22.1555 72.3526 22.6346 72.51C22.8485 72.5942 23.0558 72.6945 23.2546 72.81L24.3946 73.42C25.2746 73.9 26.3946 74.52 27.4646 75.13L30.3846 76.79L31.6646 77.51L123.285 24.42L118.505 21.67C118.165 21.46 117.705 21.18 117.185 20.88C116.199 20.2725 115.149 19.7762 114.055 19.4C113.343 19.2219 112.617 19.1081 111.885 19.06C111.005 19.62 29.8846 66.76 20.6846 72.23Z" fill="black"/>
<path d="M131.685 76.53C131.647 76.5541 131.604 76.567 131.56 76.567C131.515 76.567 131.472 76.5541 131.435 76.53L96.5346 56.34C96.4952 56.321 96.462 56.2911 96.439 56.254C96.4159 56.2168 96.404 56.1738 96.4046 56.13C96.4044 56.0851 96.4164 56.0409 96.4393 56.0022C96.4622 55.9634 96.4951 55.9316 96.5346 55.91L116.775 44.18C116.813 44.1607 116.856 44.1506 116.9 44.1506C116.943 44.1506 116.986 44.1607 117.025 44.18L151.905 64.4C151.941 64.4213 151.972 64.4519 151.993 64.4888C152.014 64.5257 152.025 64.5675 152.025 64.61C152.024 64.6537 152.013 64.6965 151.992 64.7348C151.971 64.7731 151.941 64.8058 151.905 64.83L131.685 76.53Z" fill="white"/>
<path d="M131.575 76.82C131.487 76.8169 131.401 76.7929 131.325 76.75L96.4046 56.56C96.3276 56.5164 96.2636 56.4531 96.2191 56.3767C96.1746 56.3003 96.1511 56.2134 96.1511 56.125C96.1511 56.0365 96.1746 55.9497 96.2191 55.8732C96.2636 55.7968 96.3276 55.7336 96.4046 55.69L116.685 44C116.761 43.9561 116.847 43.933 116.935 43.933C117.022 43.933 117.109 43.9561 117.185 44L152.065 64.21C152.142 64.252 152.206 64.3143 152.25 64.3901C152.294 64.4659 152.316 64.5523 152.315 64.64C152.317 64.7279 152.295 64.8147 152.251 64.8907C152.207 64.9668 152.142 65.0289 152.065 65.07L131.865 76.78C131.773 76.8193 131.673 76.8331 131.575 76.82ZM116.895 44.4L96.6846 56.13L131.605 76.32L151.805 64.61L116.895 44.4Z" fill="black"/>
<path d="M96.2946 132C96.3314 132.022 96.3624 132.053 96.385 132.089C96.4076 132.126 96.4212 132.167 96.4246 132.21V135C96.4237 135.045 96.4112 135.089 96.3885 135.127C96.3657 135.166 96.3333 135.198 96.2946 135.22C96.2557 135.239 96.213 135.249 96.1696 135.249C96.1262 135.249 96.0834 135.239 96.0446 135.22L23.6846 93.56C21.787 92.3742 20.2214 90.726 19.1346 88.77C17.9721 86.8534 17.3213 84.6703 17.2446 82.43V77.14C17.2446 75.08 17.9646 73.57 19.2446 72.84C20.5246 72.11 22.1646 72.25 23.9446 73.28L96.2646 115C96.3014 115.021 96.3319 115.052 96.353 115.089C96.374 115.126 96.3849 115.168 96.3846 115.21V118C96.3857 118.044 96.3752 118.088 96.3541 118.126C96.3331 118.165 96.3022 118.197 96.2646 118.22C96.2257 118.239 96.183 118.249 96.1396 118.249C96.0962 118.249 96.0534 118.239 96.0146 118.22L23.6246 76.54C23.2723 76.279 22.857 76.1164 22.4212 76.0689C21.9853 76.0215 21.5447 76.0909 21.1446 76.27C20.7925 76.5289 20.5147 76.8758 20.3392 77.2761C20.1636 77.6763 20.0965 78.1156 20.1446 78.55V83.84C20.1927 85.1371 20.5713 86.4003 21.2446 87.51C21.8758 88.6473 22.7838 89.6069 23.8846 90.3L96.2946 132Z" fill="white"/>
<path d="M96.1746 135.52C96.086 135.523 95.9987 135.499 95.9246 135.45L23.5346 93.77C21.6262 92.5305 20.0369 90.8588 18.8954 88.8903C17.7539 86.9218 17.0924 84.7119 16.9646 82.44V77.14C16.9646 75.01 17.6946 73.41 19.0446 72.63C20.3946 71.85 22.1546 72 24.0446 73.06L96.3846 114.74C96.4588 114.785 96.5206 114.848 96.5643 114.923C96.608 114.998 96.6321 115.083 96.6346 115.17V118C96.6358 118.089 96.6133 118.177 96.5693 118.254C96.5254 118.331 96.4616 118.396 96.3846 118.44C96.3072 118.48 96.2215 118.5 96.1346 118.5C96.0477 118.5 95.962 118.48 95.8846 118.44L23.4946 76.75C23.1806 76.5142 22.8097 76.3659 22.4197 76.3202C22.0297 76.2746 21.6345 76.3331 21.2746 76.49C20.96 76.7259 20.713 77.0405 20.5586 77.4021C20.4041 77.7637 20.3475 78.1596 20.3946 78.55V83.84C20.4699 85.0891 20.8354 86.3035 21.462 87.3867C22.0887 88.4699 22.9592 89.3921 24.0046 90.08L96.3946 131.76C96.4676 131.806 96.5279 131.869 96.5699 131.944C96.6119 132.019 96.6341 132.104 96.6346 132.19V135C96.634 135.087 96.6107 135.173 96.5668 135.248C96.523 135.324 96.4601 135.386 96.3846 135.43C96.3235 135.478 96.2511 135.509 96.1746 135.52V135.52ZM20.9446 72.63C20.3662 72.6249 19.7969 72.7733 19.2946 73.06C18.1046 73.75 17.4446 75.2 17.4546 77.14V82.43C17.5274 84.626 18.1682 86.7656 19.3146 88.64C20.3717 90.5646 21.908 92.1835 23.7746 93.34L96.1746 135V132.2L23.7746 90.51C22.6545 89.7774 21.7219 88.7923 21.0515 87.634C20.3811 86.4756 19.9917 85.1761 19.9146 83.84V78.55C19.8631 78.0719 19.9408 77.5887 20.1396 77.1507C20.3383 76.7128 20.6508 76.3361 21.0446 76.06C21.4801 75.8575 21.9618 75.7748 22.4399 75.8205C22.918 75.8662 23.3753 76.0387 23.7646 76.32L96.1346 118V115.17L23.7446 73.49C22.9019 72.9648 21.9368 72.6683 20.9446 72.63V72.63Z" fill="black"/>
<path d="M122.565 78.72C122.531 78.7592 122.486 78.7869 122.436 78.7995C122.386 78.812 122.333 78.8087 122.285 78.79L95.2146 67.65C95.177 67.637 95.1435 67.6145 95.1172 67.5847C95.0909 67.5549 95.0728 67.5189 95.0646 67.48C95.0551 67.442 95.0547 67.4022 95.0633 67.364C95.072 67.3258 95.0896 67.2902 95.1146 67.26L102.265 59C102.3 58.96 102.347 58.9318 102.399 58.9192C102.45 58.9067 102.505 58.9105 102.555 58.93L129.555 70.08C129.591 70.0959 129.624 70.12 129.649 70.1504C129.675 70.1808 129.693 70.2167 129.703 70.2553C129.713 70.294 129.713 70.3344 129.705 70.3733C129.697 70.4123 129.679 70.4488 129.655 70.48L122.565 78.72Z" fill="#FCACA9"/>
<path d="M122.375 79.06C122.312 79.0742 122.247 79.0742 122.185 79.06L95.1146 67.88C95.0417 67.8503 94.9768 67.8042 94.9247 67.7452C94.8727 67.6862 94.835 67.616 94.8146 67.54C94.7997 67.4615 94.8019 67.3807 94.8209 67.3031C94.8398 67.2255 94.8752 67.1528 94.9246 67.09L102.075 58.8C102.145 58.7225 102.237 58.6685 102.339 58.6452C102.441 58.622 102.548 58.6306 102.645 58.67L129.685 69.82C129.759 69.85 129.825 69.8974 129.877 69.9584C129.93 70.0193 129.966 70.0919 129.985 70.17C129.999 70.2469 129.997 70.3261 129.978 70.4021C129.959 70.4781 129.924 70.549 129.875 70.61L122.735 78.88C122.691 78.9338 122.636 78.9776 122.574 79.0087C122.512 79.0397 122.444 79.0572 122.375 79.06V79.06ZM102.455 59.13L95.3046 67.42L122.375 78.56L129.515 70.29L102.455 59.13Z" fill="black"/>
</svg>
